<svg width="32" height="32" viewBox="0 0 32 32" fill="none" xmlns="http://www.w3.org/2000/svg">
<path id="i.icon.star" d="M15.0866 1.54906C15.439 0.758572 16.561 0.758571 16.9134 1.54906L20.7378 10.1289C20.8832 10.4549 21.1913 10.6788 21.5462 10.7163L30.888 11.7022C31.7487 11.7931 32.0954 12.8602 31.4525 13.4396L24.4744 19.7282C24.2092 19.9671 24.0915 20.3293 24.1656 20.6785L26.1147 29.8677C26.2942 30.7143 25.3865 31.3739 24.6368 30.9414L16.4996 26.2482C16.1904 26.0698 15.8096 26.0698 15.5004 26.2482L7.3632 30.9414C6.6135 31.3739 5.70577 30.7143 5.88534 29.8677L7.83439 20.6785C7.90845 20.3293 7.79077 19.9671 7.52561 19.7282L0.547508 13.4396C-0.0954047 12.8602 0.251316 11.7931 1.112 11.7022L10.4538 10.7163C10.8087 10.6788 11.1168 10.4549 11.2622 10.1289L15.0866 1.54906Z" fill="#777777"/>
</svg>
