<svg width="20" height="39" viewBox="0 0 20 39" fill="none" xmlns="http://www.w3.org/2000/svg">
<path id="i.icon.dollar" d="M0 25.875H3.91667C3.91667 28.17 6.59958 30.125 9.79167 30.125C12.9838 30.125 15.6667 28.17 15.6667 25.875C15.6667 23.5375 13.63 22.6875 9.32167 21.5613C5.17 20.435 0 19.0325 0 13.125C0 9.32125 2.87875 6.09125 6.85417 5.0075V0.375H12.7292V5.0075C16.7046 6.09125 19.5833 9.32125 19.5833 13.125H15.6667C15.6667 10.83 12.9838 8.875 9.79167 8.875C6.59958 8.875 3.91667 10.83 3.91667 13.125C3.91667 15.4625 5.95333 16.3125 10.2617 17.4387C14.4133 18.565 19.5833 19.9675 19.5833 25.875C19.5833 29.6787 16.7046 32.9087 12.7292 33.9925V38.625H6.85417V33.9925C2.87875 32.9087 0 29.6787 0 25.875Z" fill="#F0F0F0"/>
</svg>
